<?xml version="1.0" encoding="iso-8859-1"?>
<!-- Generator: Adobe Illustrator 21.0.0, SVG Export Plug-In . SVG Version: 6.00 Build 0)  -->
<svg version="1.1" id="Layer_1" xmlns="http://www.w3.org/2000/svg" xmlns:xlink="http://www.w3.org/1999/xlink" x="0px" y="0px"
	 viewBox="0 0 24 24" enable-background="new 0 0 24 24" xml:space="preserve" width="24" height="24">
<g>
	<path fill="#F8F8F8" d="M14.5002031,19.6312866V22c0,0.8284302-0.6715698,1.5-1.5,1.5s-1.5-0.6715698-1.5-1.5v-1.5
		l0.1333418-0.2000122l2.8666582-0.5999756V19.6312866z"/>
	<g>
		<path fill="#F8F8F8" d="M11.5002031,8.2999268v2.2504883c0.1616211-0.0328369,0.3287354-0.050415,0.5-0.050415
			c1.0740967,0,1.9797363,0.682251,2.333374,1.6333008l0.0797729,0.0445557
			c0.0289307,0.0113525,0.0584106,0.020752,0.086853,0.0332031V7.7000122L11.5002031,8.2999268z"/>
		<path fill="#D51C29" d="M5.5002031,5v2c0,0.8284302,0.6715698,1.5,1.5,1.5s1.5-0.6715698,1.5-1.5V5.2999268L5.5298662,4.7059326
			C5.5233355,4.8049927,5.5002031,4.899231,5.5002031,5z"/>
		<path fill="#D51C29" d="M10.0002031,0.5c-0.6187134,0-1.2080078,0.1254883-1.7445679,0.3514404l0.8782349,2.9275513
			C9.3789263,3.6047974,9.6766558,3.5,10.0002031,3.5s0.6212769,0.1047974,0.866333,0.2789917l0.8782349-2.9275513
			C11.2082109,0.6254883,10.6189165,0.5,10.0002031,0.5z"/>
		<path fill="#F8F8F8" d="M5.5298662,4.7059326l2.9703369,0.5939941V5c0-0.5048828,0.2513428-0.9491577,0.633667-1.2210083
			L8.2556353,0.8514404C6.7242632,1.4961548,5.644124,2.9689941,5.5298662,4.7059326z"/>
		<path fill="#D51C29" d="M14.5002031,5c0-0.100769-0.0231323-0.1949463-0.0296631-0.2940674l-2.9703369,0.5939941v3l3-0.5999146V5z
			"/>
		<path fill="#F8F8F8" d="M11.744771,0.8514404l-0.8782349,2.9275513C11.2488604,4.0508423,11.5002031,4.4951172,11.5002031,5
			v0.2999268L14.47054,4.7059326C14.3562822,2.9690552,13.2761431,1.4961548,11.744771,0.8514404z"/>
	</g>
	<path opacity="0.2" fill="#FFFFFF" enable-background="new    " d="M12.5002031,10.550415V5c0-0.8284302-0.6715698-1.5-1.5-1.5
		c-0.1762695,0-0.3428955,0.0359497-0.5,0.0917969c0.5812378,0.206604,1,0.7560425,1,1.4082031v5.550415
		c0.1616211-0.0328369,0.3287354-0.050415,0.5-0.050415c1.0740967,0,1.9797363,0.682251,2.333374,1.6333008l0.0797729,0.0445557
		c0.0289307,0.0113525,0.0584106,0.020752,0.086853,0.0332031v-1.1984253C14.0836382,10.6935425,13.5668535,10.5,13.0002031,10.5
		C12.8289385,10.5,12.6618242,10.5175781,12.5002031,10.550415z"/>
	<path opacity="0.2" fill="#FFFFFF" enable-background="new    " d="M6.5002031,7V5c0-2.3140259,1.7532349-4.197876,4-4.449585
		C10.3338823,0.5317993,10.1714678,0.5,10.0002031,0.5c-2.4852905,0-4.5,2.0147095-4.5,4.5v2c0,0.8284302,0.6715698,1.5,1.5,1.5
		c0.1762695,0,0.3428955-0.0359497,0.5-0.0917969C6.9189653,8.2015991,6.5002031,7.6521606,6.5002031,7z"/>
	<path opacity="0.1" enable-background="new    " d="M10.0002031,0.5c-0.1712646,0-0.3336792,0.0317993-0.5,0.050415
		c2.2467651,0.251709,4,2.1355591,4,4.449585v6.0126343c0.3730469,0.2857056,0.6663208,0.6713867,0.833374,1.1206665
		l0.0797729,0.0445557c0.0289307,0.0113525,0.0584106,0.020752,0.086853,0.0332031V5
		C14.5002031,2.5147095,12.4854937,0.5,10.0002031,0.5z"/>
	<polygon fill="#D51C29" points="14.5002031,17 11.5002031,17 11.5002031,20 14.5002031,19.5 	"/>
	<g>
		<path opacity="0.1" enable-background="new    " d="M13.5002031,22c0,0.6521606-0.4187622,1.2015991-1,1.4082031
			c0.1571045,0.0558472,0.3237305,0.0917969,0.5,0.0917969c0.8284302,0,1.5-0.6715698,1.5-1.5v-2.9312744l-1,0.2092896V22z"/>
		<path opacity="0.2" fill="#FFFFFF" enable-background="new    " d="M12.5002031,22v-2.5126953l-0.8666382,0.1813965
			l-0.1333618,0.2000122V22c0,0.8284302,0.6715698,1.5,1.5,1.5c0.1762695,0,0.3428955-0.0359497,0.5-0.0917969
			C12.9189653,23.2015991,12.5002031,22.6521606,12.5002031,22z"/>
	</g>
	<path opacity="0.1" enable-background="new    " d="M7.5002031,5v2c0,0.6521606-0.4187622,1.2015991-1,1.4082031
		C6.6573076,8.4640503,6.8239336,8.5,7.0002031,8.5c0.8284302,0,1.5-0.6715698,1.5-1.5V5
		c0-0.6521606,0.4187622-1.2015991,1-1.4082031C9.3430986,3.5359497,9.1764727,3.5,9.0002031,3.5
		C8.171773,3.5,7.5002031,4.1715698,7.5002031,5z"/>
	<g>
		<path fill="#D51C29" d="M11.0002031,14.5c0-1.3807373,1.1192627-2.5,2.5-2.5c0.2975464,0,0.5789795,0.0609131,0.843689,0.156311
			C13.9966631,11.1928101,13.083272,10.5,12.0002031,10.5c-1.3807373,0-2.5,1.1192627-2.5,2.5
			c0,1.0830688,0.6928711,1.99646,1.656311,2.343689C11.0611162,15.0789795,11.0002031,14.7975464,11.0002031,14.5z"/>
		<circle fill="#D51C29" cx="13.5002022" cy="14.5" r="2.4999998"/>
		<path fill="#0DB14B" d="M15.6340532,15.7857666L15.6340532,15.7857666C15.1963091,16.5105591,14.4086504,17,13.5002031,17
			c-0.0741577,0-0.144043-0.0155029-0.2165527-0.0218506l-0.0077515,0.0039673
			C13.6829424,17.7562256,13.7798052,18.1611938,13.5002031,19l0.0014648,0.0004883
			C14.2925615,19.2640991,15.3730669,20.2542725,15.0002031,21l0.0775146-0.0258789
			C16.0198574,20.6600952,17.0064907,20.5,17.9996548,20.5h0.0005493c-0.295166-0.8855591-0.4611816-2.3592529,0.3154907-2.8770142
			L18.5002041,17.5C17.6574306,17.2191162,15.9939775,16.5874634,15.6340532,15.7857666z"/>
		<path fill="#0DB14B" d="M12.0569048,16.5358887v-0.0004272c-0.4121704-0.2929077-0.7259521-0.7077637-0.9003906-1.1917725
			c-0.3477173-0.1253052-0.6582642-0.3264771-0.9156494-0.5806274C9.7434282,15.8011475,8.6948442,16.5,7.5002031,16.5
			l0.0755615,0.3022461c0.2786865,1.1146851,0.2786865,2.2808228,0,3.3955078L7.5002031,20.5
			c1.3131104-0.3283081,2.6868896-0.3283081,4,0l1-1.5C11.9059649,18.2543335,11.9220171,17.21875,12.0569048,16.5358887z"/>
		<path opacity="0.2" fill="#FFFFFF" enable-background="new    " d="M15.001668,19.0004883L15.0002031,19
			c0.2796021-0.8388062,0.1827393-1.2437744-0.2243042-2.0178833l0.0077515-0.0039673
			C14.8561602,16.9844971,14.9260454,17,15.0002031,17c0.5228882,0,0.9954834-0.175415,1.3946543-0.4512329
			c-0.3495483-0.2294922-0.6360483-0.4851074-0.7608042-0.7630005C15.1963091,16.5105591,14.4086504,17,13.5002031,17
			c-0.0741577,0-0.144043-0.0155029-0.2165527-0.0218506l-0.0077515,0.0039673
			C13.6829424,17.7562256,13.7798052,18.1611938,13.5002031,19l0.0014648,0.0004883
			C14.2925615,19.2640991,15.3730669,20.2542725,15.0002031,21l0.0775146-0.0258789
			c0.4846802-0.1615601,0.9813852-0.2807617,1.484498-0.3599854C16.5124111,19.946228,15.6619463,19.2205811,15.001668,19.0004883z"
			/>
		<path opacity="0.2" fill="#FFFFFF" enable-background="new    " d="M7.5002031,20.5
			c0.5112305-0.1278076,1.0322876-0.1906738,1.5547485-0.2189941l0.020813-0.083252
			c0.2786865-1.1146851,0.2786865-2.2808228,0-3.3955078L9.0002031,16.5c0.8815308,0,1.6817627-0.3823242,2.2414551-0.9989014
			c-0.024353-0.0550537-0.0645752-0.1003418-0.085144-0.1574097c-0.3477173-0.1253052-0.6582642-0.3264771-0.9156494-0.5806274
			C9.7434282,15.8011475,8.6948442,16.5,7.5002031,16.5l0.0755615,0.3022461c0.2786865,1.1146851,0.2786865,2.2808228,0,3.3955078
			L7.5002031,20.5z"/>
	</g>
	<circle opacity="0.2" fill="#FFFFFF" enable-background="new    " cx="13.0002031" cy="14" r="0.5"/>
	<circle opacity="0.2" fill="#FFFFFF" enable-background="new    " cx="11.5002031" cy="12.5" r="0.5"/>
	<path fill="#303C42" d="M18.6584072,17.0253906c-1.3999023-0.4661865-2.1495361-0.9314575-2.4437866-1.2676392
		c0.1787109-0.3837891,0.2855835-0.8071899,0.2855835-1.2577515c0-1.1054688-0.607667-2.0623779-1.500001-2.5827637V5
		c0-0.1323242-0.0289307-0.2567139-0.0390625-0.3864746c-0.0003662-0.0018921,0.0003662-0.0037231,0-0.0056152
		c-0.0001221-0.0006714-0.0006104-0.0011597-0.0007324-0.0018311c-0.1520996-1.9094849-1.3599243-3.5234375-3.057312-4.2254028
		c-0.0056152-0.0018921-0.0094604-0.0064087-0.0151978-0.0081177c-0.0050659-0.0014648-0.0100708-0.000061-0.0151367-0.0013428
		C11.293355,0.1359253,10.6630449,0,10.0002031,0C9.3374224,0,8.7072344,0.1359253,8.1278276,0.3712158
		c-0.005127,0.0013428-0.0101929-0.0001831-0.0153198,0.0013428c-0.0057373,0.001709-0.0095825,0.0062256-0.0151978,0.0081177
		c-1.6973877,0.7019653-2.9052124,2.315918-3.057312,4.2254028C5.039876,4.6067505,5.0393877,4.6072388,5.0392656,4.6079102
		c-0.0003662,0.0018921,0.0003662,0.0037231,0,0.0056152C5.0291338,4.7432861,5.0002031,4.8676758,5.0002031,5v2
		c0,1.1030273,0.8974609,2,2,2s2-0.8969727,2-2V5c0-0.5512695,0.4482422-1,1-1s1,0.4487305,1,1v5.1842651
		c-1.161499,0.4141235-2,1.5137939-2,2.8157349c0,0.6659546,0.2299194,1.2931519,0.6185913,1.8027344
		C9.1546221,15.5290527,8.3648882,16,7.5002031,16c-0.1542969,0-0.2988281,0.0708008-0.3935547,0.1918945
		c-0.0947266,0.121582-0.1289062,0.2792969-0.0917969,0.4287109l0.0751953,0.3032227
		c0.2587891,1.03125,0.2587891,2.1210938,0,3.1533203l-0.0751953,0.3022461
		c-0.0419922,0.1704102,0.0078125,0.3500977,0.1318359,0.4741211c0.1240234,0.1245117,0.3046875,0.175293,0.4746094,0.1313477
		c1.1037598-0.2755127,2.2633057-0.2896118,3.3789062-0.0700684V22c0,1.1030273,0.8974609,2,2,2s2-0.8969727,2-2v-0.5337524
		c0.0189819,0.00177,0.0366211,0.0103149,0.0556641,0.0103149c0.0615234,0,0.1230469-0.0092773,0.1796875-0.027832
		C16.1291103,21.1508789,17.0587978,21,18.0002041,21c0.1611328,0,0.3115234-0.0771484,0.4052734-0.2075195
		c0.0947266-0.1303711,0.1201172-0.2978516,0.0693359-0.4506836c-0.2919922-0.875-0.3291016-2.0043945,0.1181641-2.3027344
		l0.1845703-0.1230469c0.1591797-0.105957,0.2431641-0.2929688,0.2177734-0.4824219S18.8390713,17.0859375,18.6584072,17.0253906z
		 M13.5002031,16.5c-1.1025391,0-2-0.8969727-2-2s0.8974609-2,2-2s2,0.8969727,2,2S14.6027422,16.5,13.5002031,16.5z
		 M12.8908281,18.6879883c-0.3292236-0.4125366-0.407959-0.9451904-0.4068604-1.3773193
		c0.1489258,0.0540771,0.2998657,0.1029663,0.4586792,0.1329956c0.2467651,0.513916,0.2814941,0.8048096,0.0839233,1.3995972
		c-0.0799561,0.2407837,0.0388184,0.4923706,0.2613525,0.5998535l-0.5603638,0.1171875l0.1886597-0.282959
		C13.0373125,19.0961914,13.0265703,18.8583984,12.8908281,18.6879883z M12.0002031,5.7095947l2-0.3997192v1.9805298l-2,0.3997192
		V5.7095947z M13.9298906,4.3044434L11.9695024,4.696228c-0.064209-0.4165039-0.2524414-0.7911377-0.5323486-1.0814209
		l0.6098022-2.0330811C13.0208941,2.1671753,13.7250566,3.1456299,13.9298906,4.3044434z M7.9534502,1.5817261l0.6098022,2.0330811
		C8.2833452,3.9050903,8.0951128,4.2797241,8.0309038,4.696228L6.0705156,4.3044434
		C6.2753496,3.1456299,6.9795122,2.1671753,7.9534502,1.5817261z M7.0002031,8c-0.5517578,0-1-0.4487305-1-1V5.3098755l2,0.3997192
		V7C8.0002031,7.5512695,7.5519609,8,7.0002031,8z M9.4481401,3.0872192L8.8763018,1.180542
		C9.2351885,1.0745239,9.6073198,1,10.0002031,1s0.7650146,0.0745239,1.1239014,0.180542l-0.5718384,1.9066772
		C10.3757524,3.0360718,10.1929522,3,10.0002031,3S9.6246538,3.0360718,9.4481401,3.0872192z M12.0002031,8.7095947l2-0.3997192
		v2.4713135C13.4607744,10.2927246,12.7542315,10,12.0002031,10V8.7095947z M12.0002031,11
		c0.4938965,0,0.9455566,0.2027588,1.3024292,0.5199585c-1.4943237,0.0994263-2.6831055,1.2883911-2.7824707,2.7827148
		C10.203023,13.9457397,10.0002031,13.4940796,10.0002031,13C10.0002031,11.8969727,10.8976641,11,12.0002031,11z
		 M8.1603594,19.8574219c0.1767578-0.9624023,0.1640625-1.956543-0.0390625-2.9135742
		c0.9053345-0.1650391,1.7045898-0.6969604,2.2426758-1.4504395c0.1258545,0.0824585,0.2580566,0.1552124,0.3971558,0.218811
		c0.1759644,0.395874,0.4389648,0.7402954,0.7590942,1.0239868c-0.0725708,0.5595703-0.0897217,1.4713135,0.3774414,2.2667236
		l-0.6220703,0.9331055C10.2521563,19.7250977,9.1935625,19.6987305,8.1603594,19.8574219z M13.0002031,23
		c-0.5517578,0-1-0.4487305-1-1v-1.2661133l2-0.418396V22C14.0002031,22.5512695,13.5519609,23,13.0002031,23z
		 M17.357626,20.0209961c-0.6064453,0.0405273-1.2128906,0.1391602-1.828126,0.300293
		c-0.0185547-0.0703125-0.0429688-0.140625-0.0722656-0.2114258c-0.2402344-0.581543-0.8144531-1.0927734-1.3603516-1.3901367
		c0.1043701-0.4833984,0.0619507-0.8674927-0.0758057-1.2723999c0.6332397-0.1117554,1.1976929-0.418335,1.6278076-0.8612671
		c0.4176645,0.3907471,1.046876,0.7631836,1.9255381,1.1102295C17.1818447,18.3452148,17.2091885,19.2739258,17.357626,20.0209961z"
		/>
	
		<linearGradient id="SVGID_1_" gradientUnits="userSpaceOnUse" x1="3.1150608" y1="16.0650177" x2="20.6075172" y2="7.9081416" gradientTransform="matrix(1 0 0 -1 0 24)">
		<stop  offset="0" style="stop-color:#FFFFFF;stop-opacity:0.2"/>
		<stop  offset="1" style="stop-color:#FFFFFF;stop-opacity:0"/>
	</linearGradient>
	<path fill="url(#SVGID_1_)" d="M18.6584072,17.0253906c-1.3999023-0.4661865-2.1495361-0.9314575-2.4437866-1.2676392
		c0.1787109-0.3837891,0.2855835-0.8071899,0.2855835-1.2577515c0-1.1054688-0.607667-2.0623779-1.500001-2.5827637V5
		c0-2.7568359-2.2431641-5-5-5s-5,2.2431641-5,5v2c0,1.1030273,0.8974609,2,2,2s2-0.8969727,2-2V5c0-0.5512695,0.4482422-1,1-1
		s1,0.4487305,1,1v5.1842651c-1.161499,0.4141235-2,1.5137939-2,2.8157349c0,0.6659546,0.2299194,1.2931519,0.6185913,1.8027344
		C9.1546221,15.5290527,8.3648882,16,7.5002031,16c-0.1542969,0-0.2988281,0.0708008-0.3935547,0.1918945
		c-0.0947266,0.121582-0.1289062,0.2792969-0.0917969,0.4287109l0.0751953,0.3032227
		c0.2587891,1.03125,0.2587891,2.1210938,0,3.1533203l-0.0751953,0.3022461
		c-0.0419922,0.1704102,0.0078125,0.3500977,0.1318359,0.4741211c0.1240234,0.1245117,0.3046875,0.175293,0.4746094,0.1313477
		c1.1037598-0.2755127,2.2633057-0.2896118,3.3789062-0.0700684V22c0,1.1030273,0.8974609,2,2,2s2-0.8969727,2-2v-0.5337524
		c0.0189819,0.00177,0.0366211,0.0103149,0.0556641,0.0103149c0.0615234,0,0.1230469-0.0092773,0.1796875-0.027832
		C16.1291103,21.1508789,17.0587978,21,18.0002041,21c0.1611328,0,0.3115234-0.0771484,0.4052734-0.2075195
		c0.0947266-0.1303711,0.1201172-0.2978516,0.0693359-0.4506836c-0.2919922-0.875-0.3291016-2.0043945,0.1181641-2.3027344
		l0.1845703-0.1230469c0.1591797-0.105957,0.2431641-0.2929688,0.2177734-0.4824219S18.8390713,17.0859375,18.6584072,17.0253906z"
		/>
</g>
</svg>
