<svg width="128" height="109" viewBox="0 0 128 109" fill="none" xmlns="http://www.w3.org/2000/svg">
<rect x="6.7084" y="62.548" width="114.781" height="46.0685" fill="#9E70FE"/>
<path fill-rule="evenodd" clip-rule="evenodd" d="M68.3906 29.7242C69.4299 26.0435 71.2776 21.9504 74.2613 18.5268C74.5659 18.1772 74.88 17.8423 75.202 17.5215C82.0528 10.6964 89.5533 19.6864 83.2186 26.9551C80.8754 29.6438 78.5583 32.069 76.4553 34.0741C76.0651 34.4461 75.6823 34.8036 75.3081 35.1457C71.5707 38.562 68.688 40.4358 67.8555 39.7699C67.151 39.2063 66.9835 35.7422 67.9651 31.3986C68.0884 30.853 68.2299 30.2935 68.3906 29.7242ZM65.51 31.9609C65.5159 31.9577 65.5223 31.9542 65.5294 31.9502C65.4844 31.9725 65.4769 31.9787 65.51 31.9609ZM68.8226 11.6335C68.3582 12.0961 67.9039 12.5806 67.4619 13.0876C62.675 18.5803 60.2539 25.0714 59.1749 30.1516C58.6289 32.7224 58.3697 35.1937 58.3993 37.3059C58.4137 38.3365 58.4993 39.5201 58.7581 40.6926C58.8871 41.2765 59.1025 42.0605 59.4878 42.9031C59.8263 43.6433 60.5853 45.0795 62.1425 46.3252C65.3823 48.9169 69.01 48.487 70.4241 48.1965C72.0225 47.8681 73.3329 47.2352 74.1513 46.7933C75.8773 45.8612 77.6189 44.5529 79.1833 43.248C82.42 40.5482 86.2508 36.7167 90.0179 32.3942C95.5812 26.0108 95.9849 17.4031 91.0768 11.5757C88.6322 8.67306 84.8248 6.56614 80.2705 6.57599C75.7222 6.58584 71.7792 8.68797 68.8226 11.6335Z" fill="white"/>
<path fill-rule="evenodd" clip-rule="evenodd" d="M56.1269 29.7242C55.0876 26.0435 53.24 21.9504 50.2562 18.5268C49.9516 18.1772 49.6376 17.8423 49.3155 17.5215C42.4648 10.6964 34.9643 19.6864 41.299 26.9551C43.6422 29.6438 45.9593 32.069 48.0623 34.0741C48.4524 34.4461 48.8352 34.8036 49.2095 35.1457C52.9469 38.562 55.8296 40.4358 56.662 39.7699C57.3665 39.2063 57.534 35.7422 56.5524 31.3986C56.4291 30.853 56.2877 30.2935 56.1269 29.7242ZM59.0076 31.9609C59.0017 31.9577 58.9953 31.9542 58.9882 31.9502C59.0332 31.9725 59.0406 31.9787 59.0076 31.9609ZM55.695 11.6335C56.1594 12.0961 56.6137 12.5806 57.0556 13.0876C61.8426 18.5803 64.2636 25.0714 65.3427 30.1516C65.8887 32.7224 66.1479 35.1937 66.1183 37.3059C66.1039 38.3365 66.0183 39.5201 65.7595 40.6925C65.6305 41.2765 65.4151 42.0605 65.0297 42.9031C64.6912 43.6433 63.9323 45.0795 62.3751 46.3252C59.1352 48.9169 55.5076 48.487 54.0934 48.1964C52.4951 47.8681 51.1846 47.2352 50.3662 46.7933C48.6403 45.8612 46.8986 44.5528 45.3343 43.248C42.0976 40.5481 38.2667 36.7167 34.4996 32.3942C28.9364 26.0108 28.5326 17.4031 33.4407 11.5757C35.8854 8.67306 39.6928 6.56614 44.2471 6.576C48.7953 6.58584 52.7384 8.68797 55.695 11.6335Z" fill="white"/>
<rect x="0.461823" y="42.6138" width="103.926" height="19.9341" rx="5" fill="#844CF5"/>
<rect x="55.4817" y="42.6138" width="71.6128" height="19.9341" rx="5" fill="#9E70FE"/>
<rect x="6.7084" y="62.548" width="49.1918" height="46.0685" fill="#844CF5"/>
<path d="M112.119 62.5479L121.489 62.5479L121.489 73.4794L112.119 62.5479Z" fill="#844CF5"/>
<path d="M65.0877 62.5479L55.4811 62.5479L55.4811 73.9012L65.0877 62.5479Z" fill="#844CF5"/>
<rect x="23.1057" y="62.548" width="14.8356" height="46.0685" fill="white"/>
<rect x="82.4481" y="63.3287" width="14.8356" height="45.2877" fill="white"/>
</svg>
