<svg width="124" height="130" viewBox="0 0 124 130" fill="none" xmlns="http://www.w3.org/2000/svg">
<rect x="6.19586" y="60.8718" width="112.146" height="79.9271" fill="#FF4E4E"/>
<path fill-rule="evenodd" clip-rule="evenodd" d="M66.1435 28.4665C67.1554 24.8556 68.9544 20.8399 71.8594 17.4811C72.1559 17.1382 72.4617 16.8097 72.7753 16.4949C79.4453 9.79904 86.7479 18.6188 80.5803 25.7498C78.2989 28.3876 76.043 30.7669 73.9955 32.734C73.6156 33.099 73.2429 33.4497 72.8785 33.7853C69.2397 37.1369 66.433 38.9753 65.6226 38.322C64.9366 37.7691 64.7736 34.3706 65.7293 30.1092C65.8493 29.5739 65.987 29.0251 66.1435 28.4665ZM63.3389 30.6608C63.3446 30.6577 63.3509 30.6542 63.3578 30.6503C63.314 30.6723 63.3067 30.6784 63.3389 30.6608ZM66.5641 10.7184C66.112 11.1723 65.6696 11.6475 65.2394 12.145C60.5787 17.5337 58.2215 23.9019 57.171 28.8858C56.6393 31.408 56.387 33.8324 56.4158 35.9046C56.4298 36.9157 56.5131 38.0769 56.7652 39.2271C56.8907 39.8 57.1005 40.5692 57.4756 41.3958C57.8052 42.122 58.5441 43.531 60.0603 44.7531C63.2146 47.2957 66.7465 46.874 68.1234 46.5889C69.6796 46.2668 70.9555 45.6459 71.7523 45.2123C73.4327 44.2979 75.1284 43.0143 76.6514 41.7342C79.8028 39.0855 83.5326 35.3266 87.2003 31.086C92.6168 24.8234 93.0099 16.3788 88.2313 10.6617C85.8511 7.81406 82.1442 5.74704 77.71 5.75671C73.2817 5.76637 69.4427 7.82868 66.5641 10.7184Z" fill="white"/>
<path fill-rule="evenodd" clip-rule="evenodd" d="M54.2044 28.4665C53.1925 24.8556 51.3936 20.8399 48.4886 17.4811C48.192 17.1382 47.8863 16.8097 47.5727 16.4949C40.9027 9.79903 33.6 18.6188 39.7676 25.7498C42.049 28.3876 44.305 30.7669 46.3525 32.734C46.7324 33.099 47.1051 33.4497 47.4694 33.7853C51.1083 37.1369 53.9149 38.9752 54.7254 38.322C55.4113 37.7691 55.5744 34.3706 54.6187 30.1092C54.4986 29.5739 54.3609 29.0251 54.2044 28.4665ZM57.009 30.6608C57.0033 30.6577 56.9971 30.6542 56.9902 30.6503C57.034 30.6723 57.0412 30.6784 57.009 30.6608ZM53.7838 10.7184C54.236 11.1723 54.6784 11.6475 55.1086 12.145C59.7693 17.5337 62.1264 23.9019 63.177 28.8858C63.7086 31.408 63.961 33.8324 63.9322 35.9046C63.9181 36.9157 63.8348 38.0769 63.5828 39.2271C63.4573 39.8 63.2475 40.5692 62.8723 41.3958C62.5428 42.122 61.8039 43.531 60.2877 44.7531C57.1333 47.2957 53.6014 46.8739 52.2245 46.5889C50.6684 46.2668 49.3925 45.6459 48.5957 45.2123C46.9153 44.2979 45.2196 43.0143 43.6965 41.7342C40.5452 39.0855 36.8154 35.3266 33.1476 31.086C27.7312 24.8234 27.3381 16.3788 32.1167 10.6617C34.4969 7.81405 38.2038 5.74703 42.638 5.7567C47.0662 5.76636 50.9053 7.82868 53.7838 10.7184Z" fill="white"/>
<rect y="41.0449" width="100.993" height="19.8269" rx="5" fill="#CF1717"/>
<rect x="53.2846" y="41.0449" width="70.0137" height="19.8269" rx="5" fill="#FF4E4E"/>
<rect x="6.19586" y="60.8718" width="47.0889" height="79.9271" fill="#EE2424"/>
<path d="M108.843 60.6687L118.196 60.6687L118.196 71.7224L108.843 60.6687Z" fill="#EE2424"/>
<path d="M63.1982 60.8718L53.2848 60.8718L53.2848 72.0244L63.1982 60.8718Z" fill="#EE2424"/>
<rect x="22.3052" y="60.8718" width="14.2506" height="79.9271" fill="white"/>
<rect x="79.9271" y="60.8718" width="14.2506" height="79.9271" fill="white"/>
</svg>
