<svg width="94" height="103" viewBox="0 0 94 103" fill="none" xmlns="http://www.w3.org/2000/svg">
<path d="M8.35443 38L0 39.4752L13.7848 89L22 85.4174L8.35443 38Z" fill="#4CDAB6"/>
<path d="M80.3544 22L72 23.4752L85.7848 73L94 69.4174L80.3544 22Z" fill="#4CDAB6"/>
<path d="M15.3117 15L7 16.4897L30.8268 103L39 99.3821L15.3117 15Z" fill="#4CDAB6"/>
<path d="M62.0519 3L54 4.48972L77.0823 91L85 87.3821L62.0519 3Z" fill="#4CDAB6"/>
<path d="M24.2258 5L16 6.47614L41.9113 100L50 96.4151L24.2258 5Z" fill="#4CDAB6"/>
<path d="M48.2258 0L40 1.49168L65.9113 96L74 92.3774L48.2258 0Z" fill="#4CDAB6"/>
<path d="M36.2258 2L28 3.47614L53.9113 97L62 93.4151L36.2258 2Z" fill="#4CDAB6"/>
</svg>
