<svg width="108" height="116" viewBox="0 0 108 116" fill="none" xmlns="http://www.w3.org/2000/svg">
<rect width="63.7719" height="40.6925" rx="20.3463" transform="matrix(-0.921783 0.387706 0.387706 0.921783 79.0876 53.3275)" fill="#F6F214"/>
<path d="M87.9178 74.3217C84.0814 65.2004 73.5772 60.9163 64.4559 64.7527L41.0935 74.579C31.0904 78.7863 27.0944 90.8499 32.6076 100.197C37.1622 107.919 46.7228 111.086 54.9864 107.61L78.3489 97.7836C87.4701 93.9472 91.7543 83.4429 87.9178 74.3217Z" fill="#FDA71D"/>
<rect width="91.71" height="40.6925" rx="20.3463" transform="matrix(-0.387706 -0.921783 -0.921783 0.387705 99.3429 88.9531)" fill="#FDA71D"/>
<rect width="57.6983" height="27.3308" rx="12" transform="matrix(-0.921783 0.387706 0.387706 0.921783 71.1533 6.10352e-05)" fill="white"/>
</svg>
